<svg width="258" height="249" viewBox="0 0 258 249" fill="none" xmlns="http://www.w3.org/2000/svg">
<rect width="258" height="249" rx="124.5" fill="#D2D2D2" fill-opacity="0.2"/>
<rect x="0.398101" y="0.398101" width="257.204" height="248.204" rx="124.102" stroke="url(#paint0_linear_93_948)" stroke-opacity="0.8" stroke-width="0.796202"/>
<rect x="0.398101" y="0.398101" width="257.204" height="248.204" rx="124.102" stroke="#A9A9A9" stroke-opacity="0.25" stroke-width="0.796202"/>
<circle cx="122.34" cy="125" r="90" fill="url(#paint1_linear_93_948)"/>
<path d="M224.66 125C224.66 174.706 184.366 215 134.66 215C133.404 215 132.154 214.972 130.91 214.921C178.877 212.955 217.16 173.449 217.16 125C217.16 76.5506 178.877 37.0441 130.91 35.0781C132.154 35.0271 133.404 35 134.66 35C184.366 35 224.66 75.2944 224.66 125Z" fill="#FFB54B"/>
<path d="M122.897 63.9277C122.776 65.6263 122.599 67.3156 122.373 68.9956C119.873 87.4289 111.094 104.362 97.1656 117.318C94.0697 120.201 90.7939 122.811 87.3754 125.145C78.4539 131.226 68.5149 135.423 58.0547 137.546V108.748C65.4221 106.38 72.2715 102.375 78.1499 96.9075C87.6298 88.086 93.4834 76.4966 94.8793 63.9277H122.897ZM122.876 186.067H94.8483C93.3965 173.61 87.5585 162.132 78.153 153.379C72.2746 147.908 65.4252 143.907 58.0578 141.539V112.743C68.5211 114.87 78.4601 119.067 87.3785 125.148C90.8032 127.479 94.0759 130.095 97.1687 132.971C111.091 145.928 119.873 162.855 122.376 181.291V181.297C122.59 182.878 122.758 184.468 122.876 186.067ZM186.623 108.76V137.534C176.185 135.405 166.27 131.214 157.367 125.145C153.946 122.811 150.67 120.198 147.577 117.318C133.655 104.362 124.87 87.432 122.373 68.9956C122.147 67.3187 121.967 65.6294 121.846 63.9277H149.863C152.202 85.1631 167.03 102.505 186.623 108.76ZM186.623 112.759V141.526C167.12 147.753 152.342 164.965 149.901 186.071H121.87C121.991 184.471 122.162 182.881 122.376 181.3V181.294C124.876 162.855 133.655 145.928 147.58 132.974C150.676 130.095 153.946 127.485 157.371 125.151C166.27 119.082 176.185 114.891 186.626 112.762L186.623 112.759Z" fill="white"/>
<defs>
<linearGradient id="paint0_linear_93_948" x1="13.3031" y1="-1.4522e-06" x2="299.493" y2="163.96" gradientUnits="userSpaceOnUse">
<stop stop-color="white" stop-opacity="0.4"/>
<stop offset="0.47" stop-color="white" stop-opacity="0"/>
<stop offset="0.57" stop-color="white" stop-opacity="0"/>
<stop offset="1" stop-color="white" stop-opacity="0.1"/>
</linearGradient>
<linearGradient id="paint1_linear_93_948" x1="32.001" y1="118.5" x2="212.001" y2="129" gradientUnits="userSpaceOnUse">
<stop stop-color="#FFD190"/>
<stop offset="1" stop-color="#FFB54B"/>
</linearGradient>
</defs>
</svg>
